<?xml version="1.0" encoding="utf-8"?>
<!-- Generator: Adobe Illustrator 25.2.3, SVG Export Plug-In . SVG Version: 6.00 Build 0)  -->
<svg version="1.1" id="レイヤー_1" xmlns="http://www.w3.org/2000/svg" xmlns:xlink="http://www.w3.org/1999/xlink" x="0px"
	 y="0px" viewBox="0 0 574 60.1" style="enable-background:new 0 0 574 60.1;" xml:space="preserve">
<style type="text/css">
	.st0{enable-background:new    ;}
	.st1{fill:#0092D4;}
	.st2{fill:#3B4351;}
	.st3{fill:#C9CACA;}
	.st4{fill:#595757;}
	.st5{fill:#5C697B;}
</style>
<g id="レイヤー_2_1_">
	<g id="レイヤー_1-2">
		<g class="st0">
			<path class="st1" d="M196.2,22.3c-3,2-6.4,4.1-9.1,5.6l-2.3-3.4c2.5-1.3,6.5-3.5,10.1-5.6L196.2,22.3z M211.9,13.1
				c-1.8,2.1-4.2,4.4-6,6.1c2.2,2.7,4.8,4.8,7.9,6.2c-0.9,0.7-2.1,2.2-2.7,3.2c-4.3-2.3-7.6-6-10.1-10.6v8.2c0,2.1-0.4,3.2-1.7,3.7
				c-1.3,0.6-3.2,0.8-6,0.7c-0.2-1-0.7-2.7-1.3-3.8c1.9,0.1,3.8,0.1,4.4,0.1c0.6,0,0.8-0.2,0.8-0.7V10.3h-11.5V6.8h11.5V2.2h3.7v4.6
				h6.2c-1.3-0.9-2.9-1.8-4.2-2.5l2.1-2.3c1.8,0.9,4.4,2.2,5.7,3.2l-1.4,1.6h3.4v3.5H201v0.3c0.7,2,1.7,4,2.8,5.8
				c1.7-1.7,3.6-3.8,4.8-5.6L211.9,13.1z M191.6,18.8c-0.9-1.5-2.9-3.9-4.6-5.5l2.8-2c1.7,1.6,3.8,3.8,4.8,5.4L191.6,18.8z"/>
			<path class="st1" d="M248.2,16.3c-0.8,2.9-2,5.6-3.4,7.9c0.3,1.5,0.6,2.3,1,2.3c0.4,0,0.6-1.4,0.7-3.8c0.5,0.7,1.8,1.7,2.4,2
				c-0.8,5-2.2,6-3.2,6c-1.4,0-2.4-1.3-3.1-3.5c-1.2,1.4-2.5,2.6-4,3.6c-0.4-0.6-1.4-1.8-2.1-2.4c0.8-0.5,1.5-1,2.2-1.5H234v1.8
				h-2.8V15.9h8.4v10.1c0.7-0.7,1.4-1.5,2-2.4c-0.4-2.5-0.7-5.5-0.8-9.1h-10.7v-2.8h1.9c-0.1-1-0.3-2.5-0.7-3.6l1.8-0.4h-2.4V6.5
				h-1.2v24.2h-3v-5.2c-2.2,0.5-4.3,0.9-6.2,1.3l-0.6-3.3c0.6-0.1,1.2-0.2,1.8-0.3V6.5h-1.2V3.3h10.5V5h3V2.2h3.1V5h3.1v2.7h-2.6
				l2.1,0.4c-0.5,1.3-0.9,2.7-1.2,3.7h2.4c-0.1-2.9-0.2-6.1-0.2-9.5h3.2v2.3l2-1c1.3,1.5,2.4,3.5,3,4.9l-2.5,1.4
				c-0.4-1.2-1.4-3-2.4-4.5c0,2.3,0,4.4,0.1,6.5h4.7v2.8h-4.6c0.1,1.6,0.2,3.1,0.3,4.5c0.4-1.1,0.8-2.2,1.1-3.4L248.2,16.3z
				 M226.5,6.5h-2v3.3h2V6.5z M226.5,12.7h-2V16h2V12.7z M226.5,22.3V19h-2v3.7L226.5,22.3z M233.7,7.6c0.5,1.2,0.7,2.7,0.8,3.7
				l-1.4,0.3h4.4l-1.6-0.3c0.3-1.1,0.6-2.6,0.8-3.7H233.7z M234,18.4v1.8h2.8v-1.8H234z M236.8,24.4v-1.8H234v1.8H236.8z"/>
			<path class="st1" d="M279.7,14.6c-1.5,4.2-4,7.4-7.2,9.9c3,1.4,6.6,2.3,10.9,2.8c-0.8,0.9-1.8,2.5-2.3,3.5
				c-4.9-0.7-8.9-2-12.2-3.9c-3.6,1.9-7.7,3.1-12.2,3.9c-0.3-1-1.3-2.7-2-3.5c4-0.5,7.7-1.4,10.9-2.8c-2-1.8-3.7-4-5.1-6.6l2.7-0.9
				h-5.7v-3.6h9.6V9.8h-11.1V6.2H267v-4h3.8v4H282v3.6h-11.2v3.5h5.7l0.6-0.1L279.7,14.6z M264,16.9c1.2,2.2,2.9,4.1,5.1,5.6
				c2.2-1.5,4.1-3.3,5.4-5.6H264z"/>
			<path class="st1" d="M299.4,19.2c-1,0.3-2,0.6-3,0.9v6.7c0,1.7-0.3,2.6-1.2,3.2c-0.9,0.6-2.2,0.7-4.2,0.7
				c-0.1-0.9-0.5-2.4-0.9-3.4c1.1,0.1,2.1,0.1,2.5,0c0.4,0,0.5-0.1,0.5-0.5v-5.8L290,22l-0.6-3.6c1-0.2,2.3-0.5,3.6-0.9v-6.3h-3.2
				V7.9h3.2V2.2h3.3v5.8h2.8v3.4h-2.8v5.4L299,16L299.4,19.2z M316.2,19.6c-0.8,2.7-1.9,4.8-3.5,6.5c1.7,0.8,3.7,1.3,5.9,1.7
				c-0.8,0.7-1.7,2-2.1,3c-2.4-0.5-4.6-1.3-6.5-2.4c-1.7,1-3.7,1.8-5.8,2.4c-0.4-0.8-1.3-2.1-2-2.7c1.8-0.4,3.5-0.9,5-1.7
				c-0.9-0.7-1.7-1.6-2.3-2.5c-1.2,2.6-2.9,5-5.7,6.7c-0.5-0.9-1.5-2-2.4-2.6c4-2.5,5.6-6.4,6.3-10.3h-3.7v-2.9h4.1
				c0-0.5,0.1-1,0.1-1.4h-3.6v-2.8h1.9c-0.2-0.9-0.7-2.3-1.1-3.3l2.8-0.8c0.5,1.1,1.1,2.6,1.4,3.5l-1.7,0.6h3.5
				c-0.1-1-0.4-2.6-0.7-3.9l2.8-0.5c0.3,1.2,0.7,2.8,0.8,3.7l-2.8,0.6h3.8c0.9-1.4,1.8-3.4,2.4-4.9c-4.1,0.5-8.8,0.8-12.9,0.9
				c-0.1-0.8-0.4-2-0.8-2.7c5.4-0.2,11.6-0.6,15.4-1.5l2,2.7c-1.2,0.2-2.4,0.4-3.8,0.6l3.4,1c-0.8,1.3-1.7,2.8-2.5,3.9h2.9v2.8h-9.8
				c0,0.5-0.1,0.9-0.1,1.4h10.8v2.9h-11.2c-0.1,0.4-0.2,0.8-0.2,1.2h7.3l0.6-0.1L316.2,19.6z M306.8,21.5c0.8,1.2,1.8,2.2,3.1,3.1
				c0.9-0.9,1.7-1.9,2.3-3.1H306.8z"/>
		</g>
		<path class="st2" d="M41.8,34.2l0.3-23.5h-0.2l-5.7,23.5h-5.5l-5.5-23.5h-0.1l0.2,23.5h-7V0H28l5.5,22h0.2l5.4-22h10.3v34.2H41.8z
			"/>
		<path class="st2" d="M87,10.7c0,1.7-0.3,3.4-0.9,4.9c-0.5,1.3-1.3,2.5-2.3,3.4c-0.9,0.9-2.1,1.6-3.3,2c-1.2,0.4-2.5,0.7-3.7,0.7
			h-3.3v12.4h-7.6V0h10.6c1.2,0,2.5,0.2,3.7,0.5c1.2,0.4,2.4,1,3.4,1.8c1.1,0.9,1.9,2,2.5,3.3C86.8,7.2,87.1,9,87,10.7z M79.8,10.9
			c0.1-1.2-0.3-2.4-1.1-3.3c-0.7-0.7-1.7-1-2.7-1h-2.4v8.9H76c1,0,2-0.4,2.7-1.2C79.5,13.3,79.9,12.1,79.8,10.9L79.8,10.9z"/>
		<path class="st2" d="M91.1,34.2V0H99v27h9.1v7.2L91.1,34.2z"/>
		<path class="st2" d="M129.6,34.2l-1.4-6.2h-7.7l-1.4,6.2h-7.7L119.7,0h9.7l8.2,34.2H129.6z M124.5,7.4h-0.2L121.4,22h5.8
			L124.5,7.4z"/>
		<path class="st2" d="M151.9,6.6v27.6h-7.6V6.6H138V0h20.1v6.6H151.9z"/>
		<rect x="165.8" y="33.7" class="st1" width="6.4" height="25.5"/>
		<rect x="156.3" y="43.3" class="st1" width="25.5" height="6.4"/>
		<polygon class="st2" points="6.3,43.3 6.3,33.1 0,33.1 0,49.7 150.5,49.7 150.5,43.3 		"/>
		<polygon class="st3" points="331.9,43.3 331.9,33.1 338.2,33.1 338.2,49.7 187.7,49.7 187.7,43.3 		"/>
		<g class="st0">
			<path class="st4" d="M355.2,21.2c-0.4,0.4-1.2,0.7-2,0.7c-0.9,0-1.5-0.2-2.1-0.9v4.1h-1.6V13.7h1.6v0.9c0.6-0.7,1.3-1,2.1-1
				c0.8,0,1.5,0.3,2,0.7c0.8,0.8,0.9,2.2,0.9,3.4S356,20.4,355.2,21.2z M352.8,15.1c-1.5,0-1.7,1.2-1.7,2.7s0.2,2.7,1.7,2.7
				s1.7-1.3,1.7-2.7S354.2,15.1,352.8,15.1z"/>
			<path class="st4" d="M363.1,20.9c-0.5,0.5-1.3,1-2.4,1s-1.9-0.4-2.4-1c-0.8-0.8-1-1.8-1-3.2c0-1.4,0.2-2.4,1-3.2
				c0.5-0.5,1.3-1,2.4-1s1.9,0.4,2.4,1c0.8,0.8,1,1.8,1,3.2C364,19.1,363.8,20.1,363.1,20.9z M361.8,15.5c-0.3-0.3-0.7-0.5-1.2-0.5
				s-0.9,0.2-1.2,0.5c-0.5,0.5-0.6,1.3-0.6,2.2c0,0.9,0.1,1.7,0.6,2.2c0.3,0.3,0.7,0.5,1.2,0.5s0.9-0.2,1.2-0.5
				c0.5-0.5,0.6-1.3,0.6-2.2C362.4,16.9,362.3,16,361.8,15.5z"/>
			<path class="st4" d="M373.4,21.8H372l-1.9-5.7l-1.9,5.7h-1.4l-2.5-8.1h1.7l1.6,5.7l1.9-5.7h1.3l1.9,5.7l1.6-5.7h1.7L373.4,21.8z"
				/>
			<path class="st4" d="M377.8,18.2c0,1.4,0.7,2.3,2.1,2.3c0.9,0,1.4-0.3,2-0.8l1,1c-0.8,0.8-1.6,1.3-3,1.3c-2,0-3.6-1.1-3.6-4.2
				c0-2.6,1.4-4.1,3.4-4.1c2.2,0,3.4,1.6,3.4,3.9v0.7H377.8z M381.2,16c-0.3-0.6-0.8-1-1.6-1s-1.4,0.4-1.6,1
				c-0.2,0.4-0.2,0.6-0.2,1.1h3.6C381.4,16.6,381.4,16.4,381.2,16z"/>
			<path class="st4" d="M389.1,15.6c-0.4-0.4-0.7-0.5-1.2-0.5c-0.9,0-1.6,0.7-1.6,1.8v4.9h-1.6v-8.1h1.6v0.9c0.4-0.6,1.2-1,2.2-1
				c0.8,0,1.4,0.2,1.9,0.8L389.1,15.6z"/>
			<path class="st4" d="M391.7,18.2c0,1.4,0.7,2.3,2.1,2.3c0.9,0,1.4-0.3,2-0.8l1,1c-0.8,0.8-1.6,1.3-3,1.3c-2,0-3.6-1.1-3.6-4.2
				c0-2.6,1.4-4.1,3.4-4.1c2.2,0,3.4,1.6,3.4,3.9v0.7H391.7z M395.1,16c-0.3-0.6-0.8-1-1.6-1c-0.8,0-1.4,0.4-1.6,1
				c-0.2,0.4-0.2,0.6-0.2,1.1h3.6C395.3,16.6,395.2,16.4,395.1,16z"/>
			<path class="st4" d="M403.1,21.8v-0.9c-0.6,0.7-1.3,1-2.1,1c-0.8,0-1.5-0.3-2-0.7c-0.8-0.8-0.9-2.2-0.9-3.4s0.1-2.6,0.9-3.4
				c0.4-0.4,1.2-0.7,2-0.7c0.9,0,1.5,0.2,2.1,0.9v-4.1h1.6v11.4H403.1z M401.4,15.1c-1.5,0-1.7,1.2-1.7,2.7s0.2,2.7,1.7,2.7
				s1.7-1.3,1.7-2.7S402.9,15.1,401.4,15.1z"/>
			<path class="st4" d="M415.6,21.2c-0.4,0.4-1.2,0.7-2,0.7c-0.9,0-1.5-0.2-2.1-1v0.9h-1.6V10.4h1.6v4.1c0.6-0.7,1.3-0.9,2.1-0.9
				c0.8,0,1.5,0.3,2,0.7c0.8,0.8,0.9,2.2,0.9,3.4S416.4,20.4,415.6,21.2z M413.2,15.1c-1.5,0-1.7,1.2-1.7,2.7s0.2,2.7,1.7,2.7
				s1.7-1.3,1.7-2.7S414.7,15.1,413.2,15.1z"/>
			<path class="st4" d="M420.6,23.4c-0.2,0.4-0.4,0.8-0.6,1c-0.4,0.4-1,0.6-1.7,0.6h-0.7v-1.5h0.4c0.7,0,0.9-0.2,1.2-0.9l0.4-1.3
				l-2.8-7.7h1.7l1.9,5.7l1.9-5.7h1.7L420.6,23.4z"/>
		</g>
		<polygon class="st5" points="452.4,31.3 461.7,21.9 461.7,12.6 452.4,3.2 447.7,7.9 452.4,12.6 452.4,21.9 447.7,26.6 		"/>
		<polygon class="st1" points="443,3.2 433.7,12.6 433.7,21.9 443,31.3 452.4,31.3 443,21.9 443,12.6 452.4,3.2 		"/>
		<path class="st5" d="M550.1,15.9h8.9c0,0.9,0,1.8-0.1,2.7c-0.7,4.5-4.5,7.7-9,7.7c-5,0-9.1-4.1-9-9.1c0-5,4.1-9.1,9.1-9
			c2.7,0,5.2,1.2,6.9,3.2l-2.1,1.7c-1.2-1.4-3-2.2-4.8-2.2c-3.5,0-6.4,2.9-6.4,6.4s2.9,6.4,6.4,6.4c1.4,0,2.8-0.5,3.9-1.4
			c1.2-0.9,2-2.2,2.3-3.7h-6L550.1,15.9z M525,8.5h-14.4v2.9h5.8V26h2.9V11.4h5.8V8.5z M574,11.2V8.5h-12.9V26H574v-2.7h-10.1v-4.7
			h8.6v-2.7h-8.6v-4.7L574,11.2z M492,26h2.9v-2.9H492V26z M469.4,26h3.4V15.3l4.9,3.4v-4.5l-8.4-5.8V26z M480.8,18.8l4.9-3.4V26
			h3.4V8.5l-8.4,5.8L480.8,18.8z M504.2,15.5c-0.9-0.2-1.8-0.7-2.6-1.2c-0.5-0.5-0.8-1.2-0.6-1.9c0.2-0.8,0.7-1.5,1.5-1.7
			c1-0.3,2.1-0.1,2.9,0.5c0.6,0.4,0.9,1,0.9,1.7h2.6c0-1.5-0.7-2.9-1.9-3.8c-1.5-1.1-3.4-1.4-5.2-0.9c-1.7,0.5-3,1.9-3.3,3.7
			c-0.4,1.6,0.2,3.3,1.5,4.4c1,0.8,2.2,1.4,3.5,1.7c1,0.3,2,0.7,2.8,1.4c0.6,0.6,0.9,1.5,0.7,2.4c-0.1,0.8-0.7,1.5-1.4,1.9
			c-1.2,0.5-2.5,0.5-3.6,0c-1.1-0.5-2-1.5-2.1-2.7h-2.6c0,1.1,0.4,2.2,1.1,3.1c0.7,0.8,1.5,1.4,2.4,1.9c0.9,0.4,1.9,0.7,2.9,0.6h0
			c1,0,2-0.2,2.9-0.6c0.8-0.3,1.5-0.9,2-1.6c1.5-2.1,1.3-5-0.5-6.9C506.9,16.5,505.6,15.8,504.2,15.5L504.2,15.5z M533.5,8.5
			l8.1,17.5h-2.9l-1.9-4h-9.6l-1.9,4h-2.9l8.1-17.4L533.5,8.5L533.5,8.5z M532.1,11.6l-3.5,7.6h7.1L532.1,11.6z"/>
	</g>
</g>
</svg>
