<svg xmlns="http://www.w3.org/2000/svg" xmlns:xlink="http://www.w3.org/1999/xlink" width="260" height="53.468" viewBox="0 0 260 53.468">
  <defs>
    <clipPath id="clip-path">
      <rect id="長方形_5640" data-name="長方形 5640" width="260" height="53.468" fill="none"/>
    </clipPath>
  </defs>
  <g id="グループ_15868" data-name="グループ 15868" transform="translate(0 0)">
    <path id="パス_16260" data-name="パス 16260" d="M19.032,9.691,27.7,18.357V35.685l-8.666,8.664L27.7,53.013,45.026,35.685V18.357L27.7,1.027Z" transform="translate(6.961 0.376)" fill="#49565e"/>
    <path id="パス_16261" data-name="パス 16261" d="M17.329,1.027,0,18.356V35.685l17.328,17.33h17.33l-17.33-17.33V18.356l17.33-17.33Z" transform="translate(0 0.376)" fill="#0086bf"/>
    <g id="グループ_15867" data-name="グループ 15867" transform="translate(0 0)">
      <g id="グループ_15866" data-name="グループ 15866" clip-path="url(#clip-path)">
        <path id="パス_16262" data-name="パス 16262" d="M197.953,14.825H214.4a30.175,30.175,0,0,1-.2,5.064A16.809,16.809,0,1,1,197.594.518a16.72,16.72,0,0,1,12.9,6.026l-3.906,3.129a11.807,11.807,0,1,0-8.992,19.46,11.666,11.666,0,0,0,7.282-2.521,11.9,11.9,0,0,0,4.267-6.784H197.953ZM151.442,1.191h-26.63V6.517h10.651V33.493h5.326V6.517h10.653Zm90.835,4.966V1.185H218.309V33.5h23.956v-4.97H223.634v-8.7h15.979V14.856H223.634v-8.7ZM90.393,33.5H95.72V28.171H90.393Zm-41.933,0h6.373V13.814l9.118,6.36V11.86L48.46,1.185ZM69.6,20.175l9.118-6.36V33.5H85.09V1.185L69.6,11.86Zm43.309-6.109a14.654,14.654,0,0,1-4.87-2.3,3.537,3.537,0,0,1-1.134-3.484,4.231,4.231,0,0,1,2.875-3.223,6.264,6.264,0,0,1,5.385.858,3.789,3.789,0,0,1,1.622,3.181h4.792a8.572,8.572,0,0,0-3.558-7.029,11.045,11.045,0,0,0-9.63-1.6,9.019,9.019,0,0,0-6.18,6.831,8.272,8.272,0,0,0,2.718,8.112,18.734,18.734,0,0,0,6.445,3.2c1.99.672,3.87,1.306,5.162,2.584a4.96,4.96,0,0,1,1.338,4.41,4.66,4.66,0,0,1-2.632,3.511,8,8,0,0,1-6.713.034c-2.738-1.362-3.987-3.55-3.987-5.008H99.751a8.622,8.622,0,0,0,2.2,5.772A13.665,13.665,0,0,0,106.4,33.44a12.108,12.108,0,0,0,5.362,1.218h.1a13.264,13.264,0,0,0,5.376-1.184,9.266,9.266,0,0,0,3.622-2.947,9.883,9.883,0,0,0-.949-12.742c-2.08-2.058-4.694-2.94-7-3.719M167.221,1.207l15.057,32.286h-5.3l-3.481-7.451H155.622l-3.481,7.451h-5.3L161.9,1.207l-.008-.016h5.343Zm-2.663,5.7-6.551,14.026h13.1Z" transform="translate(17.723 0)" fill="#49565e"/>
        <path id="パス_16263" data-name="パス 16263" d="M51.617,34.333a19.836,19.836,0,0,1-.429,4.6,9.466,9.466,0,0,1-1.534,3.409c-.119.176-.191.265-.265.265-.09,0-.163-.074-.3-.25a4,4,0,0,0-.855-.826,6.841,6.841,0,0,0,1.592-3.2,9.6,9.6,0,0,0,.193-1.225c-.354.206-.694.4-1.032.56a1.759,1.759,0,0,0-.458.325.332.332,0,0,1-.236.117c-.074,0-.147-.059-.193-.176-.117-.37-.25-.871-.352-1.358a7.32,7.32,0,0,0,1.135-.34c.442-.191.87-.382,1.24-.575.015-.414.015-.856.015-1.327,0-2.494-.03-3.586-.03-3.674,0-.149.015-.163.161-.163.09,0,.606.029,2.038.029h2.434v-.22a5.874,5.874,0,0,0-.1-1.181c.545.015,1.046.045,1.579.089.146.015.235.074.235.132a.612.612,0,0,1-.089.3,1.632,1.632,0,0,0-.072.649v.236h2.92c1.446,0,1.917-.029,2.008-.029.146,0,.161.014.161.163v1.076c0,.163-.015.178-.161.178-.09,0-.561-.03-2.008-.03h-7.6Zm-2.76-2.641c.178-.074.208-.089.281.044a12.732,12.732,0,0,1,.855,2.2c.044.148.044.191-.147.295l-.753.442c-.206.119-.236.1-.28-.059a18.2,18.2,0,0,0-.826-2.331c-.059-.119-.074-.178.089-.251Zm9.635,8.543c-.149.163-.163.163-.28.03a17.456,17.456,0,0,0-1.668-1.653A5.669,5.669,0,0,1,55.1,40.338c-.164.132-.236.206-.311.206s-.161-.1-.31-.295a4.958,4.958,0,0,0-.545-.518V40.9c0,1.048.029,1.534.029,1.609,0,.147-.014.161-.147.161H52.65c-.163,0-.176-.014-.176-.161,0-.075.029-.531.029-1.609V37.313c0-1.078-.029-1.564-.029-1.653,0-.163.014-.178.176-.178.089,0,.59.03,1.978.03h1.21c.014-.427.029-.841.029-1.269H54.42c-1.416,0-1.917.029-2.006.029-.132,0-.147-.014-.147-.161V33.064c0-.147.015-.163.147-.163.089,0,.59.029,2.006.029h4.515c1.416,0,1.917-.029,2.008-.029.146,0,.161.015.161.163v1.048c0,.147-.015.161-.161.161-.09,0-.591-.029-2.008-.029H57.208c-.014.427-.014.841-.029,1.269h1.371c1.386,0,1.889-.03,1.978-.03.148,0,.161.015.161.178,0,.089-.029.65-.029,1.77v1.785c0,.813.044,1.446.044,1.9a1.353,1.353,0,0,1-.354,1.093c-.25.236-.664.324-1.976.324-.442.015-.442.015-.546-.443a2.55,2.55,0,0,0-.339-.856,12.248,12.248,0,0,0,1.252.03c.341,0,.5-.1.5-.5v-4H57.1a5.634,5.634,0,0,1-.131.694,16.863,16.863,0,0,1,2.154,1.785c.117.117.117.147-.015.295Zm-4.559-3.468V39.5a4.268,4.268,0,0,0,1.431-1.505,3.661,3.661,0,0,0,.384-1.225Z" transform="translate(17.464 10.652)" fill="#49565e"/>
        <path id="パス_16264" data-name="パス 16264" d="M67.6,29.648A.668.668,0,0,0,67.9,29.6a.379.379,0,0,1,.193-.044c.1,0,.221.059.56.427.31.354.355.5.355.59a.385.385,0,0,1-.134.266.985.985,0,0,0-.28.575,18.735,18.735,0,0,1-1.136,2.921,4.648,4.648,0,0,1,1.27,3.364,1.871,1.871,0,0,1-1.919,2.066c-.458.029-.458.029-.5-.427A1.71,1.71,0,0,0,66,38.457c.929.044,1.327-.265,1.327-1.032a4.62,4.62,0,0,0-1.314-2.98,18.292,18.292,0,0,0,1.255-3.438H65.788v8.35c0,2.021.03,3.084.03,3.173,0,.132-.015.147-.163.147H64.491c-.148,0-.163-.015-.163-.147,0-.089.029-1.106.029-3.158V32.984c0-2.08-.029-3.1-.029-3.2,0-.147.015-.163.163-.163.1,0,.458.029,1.18.029Zm4.471,7.334c-.074,2.848-.959,4.6-3.335,5.591a1.151,1.151,0,0,1-.354.119c-.1,0-.163-.074-.325-.3a3.858,3.858,0,0,0-.856-.84c2.39-.62,3.335-1.889,3.38-4.574-1.078.015-1.491.03-1.565.03-.147,0-.163-.015-.163-.164V35.8c0-.163.015-.178.163-.178.089,0,.561.029,1.963.029h3.925c1.388,0,1.874-.029,1.961-.029.149,0,.164.015.164.178v1.046c0,.149-.015.164-.164.164-.087,0-.574-.03-1.961-.03h-.414v3.57c0,.31,0,.4.119.488a1.017,1.017,0,0,0,.575.089c.4,0,.5-.045.605-.178.148-.208.163-.516.191-1.564a3.18,3.18,0,0,0,.99.369c.382.074.382.1.367.486-.074,1.225-.265,1.653-.694,1.934a2.963,2.963,0,0,1-1.755.339,2.918,2.918,0,0,1-1.46-.221c-.281-.191-.429-.473-.429-1.21v-4.1Zm-.119-2.524c-1.121,0-1.49.03-1.577.03-.149,0-.164-.015-.164-.163v-.707H69.123c-.163,0-.176-.015-.176-.163,0-.1.029-.281.029-1.388v-.412c0-.427-.029-.635-.029-.737,0-.134.014-.147.176-.147.089,0,.59.029,1.978.029H72v-.148a6.737,6.737,0,0,0-.1-1.431c.545.015,1.048.059,1.55.119.146.015.235.074.235.132a.554.554,0,0,1-.074.28,2.158,2.158,0,0,0-.089.871V30.8h1.254c1.388,0,1.889-.029,1.979-.029.161,0,.175.014.175.147,0,.089-.029.31-.029.634v.516c0,1.106.029,1.284.029,1.388,0,.147-.014.163-.175.163H75.659v.707c0,.147-.015.163-.163.163-.089,0-.458-.03-1.564-.03Zm-1.549-1.312c.117,0,.5.029,1.549.029h1.978c.989,0,1.388-.014,1.519-.029V32.069H70.407Z" transform="translate(23.527 10.687)" fill="#49565e"/>
        <path id="パス_16265" data-name="パス 16265" d="M81.927,38.519c-1.284,0-1.726.029-1.815.029-.132,0-.148-.014-.148-.161V37.5c0-.149.015-.163.148-.163.089,0,.531.029,1.815.029H85.88v-.692H83.447c-1.431,0-1.917.029-2.008.029-.146,0-.161-.014-.161-.147v-.811c0-.147.015-.163.161-.163.09,0,.576.03,2.008.03H85.88v-.65h-1.9c-1.445,0-1.961.03-2.05.03-.163,0-.176-.015-.176-.176,0-.089.029-.281.029-.768v-.8c0-.488-.029-.68-.029-.768,0-.163.014-.178.176-.178.089,0,.605.03,2.05.03h1.9v-.65H82.161c-1.326,0-1.784.03-1.874.03-.146,0-.161-.015-.161-.163v-.93c0-.147.015-.161.161-.161.09,0,.548.029,1.874.029H85.88a7.072,7.072,0,0,0-.1-1.358c.545.015,1.017.03,1.534.089.134.015.236.074.236.163a.566.566,0,0,1-.089.28,2.3,2.3,0,0,0-.089.826h3.748c1.329,0,1.786-.029,1.874-.029.147,0,.163.014.163.161v.93c0,.147-.015.163-.163.163-.087,0-.545-.03-1.874-.03H87.37v.65h1.963c1.446,0,1.963-.03,2.065-.03.147,0,.163.015.163.178,0,.087-.029.28-.029.768v.8c0,.486.029.679.029.768,0,.161-.015.176-.163.176-.1,0-.619-.03-2.065-.03H87.37v.65h2.391c1.445,0,1.961-.03,2.035-.03.148,0,.163.015.163.163,0,.089-.029.443-.029,1.284v.339c.869,0,1.209-.029,1.282-.029.134,0,.149.014.149.163v.885c0,.147-.015.161-.149.161-.074,0-.414-.014-1.282-.029v.753c0,.885.029,1.269.029,1.358,0,.148-.015.163-.163.163H90.66c-.146,0-.161-.015-.161-.163V40.3H87.387c.014.266.014.518.014.739,0,.677-.132,1.076-.531,1.312a4.783,4.783,0,0,1-2.081.325c-.441,0-.441-.015-.589-.429a4.823,4.823,0,0,0-.575-1.121,10.066,10.066,0,0,0,1.49.06c.634-.015.766-.119.766-.546V40.3H83.462c-1.446,0-1.933.03-2.023.03-.146,0-.161-.015-.161-.178v-.8c0-.163.015-.178.161-.178.09,0,.576.03,2.023.03H85.88v-.694Zm3.954-5.238H83.21v.737h2.67Zm4.22,0H87.37v.737H90.1Zm-2.73,4.086H90.5v-.692H87.37ZM90.5,38.519H87.37v.694H90.5Z" transform="translate(29.245 10.656)" fill="#49565e"/>
        <path id="パス_16266" data-name="パス 16266" d="M105.316,38.658a6.117,6.117,0,0,1-3.423,3.866,1.168,1.168,0,0,1-.355.117c-.117,0-.176-.087-.324-.339a3.013,3.013,0,0,0-.694-.841,4.865,4.865,0,0,0,3.29-2.8h-.25c-1.314,0-1.741.03-1.83.03-.161,0-.176-.014-.176-.163v-.959c0-.161.015-.176.176-.176.089,0,.516.029,1.83.029h.56c.029-.178.045-.369.06-.575a6.85,6.85,0,0,0-.015-.753,10.583,10.583,0,0,1-1.136.384c-.34.089-.355.074-.488-.265a4.5,4.5,0,0,0-.4-.724,8.166,8.166,0,0,1-.649,1.475c-.132.221-.178.31-.251.31a.716.716,0,0,1-.265-.117,3.971,3.971,0,0,0-.871-.354,7.761,7.761,0,0,0,.754-1.476h-.841v3.836c0,.664.044,1.269.044,1.859a1.4,1.4,0,0,1-.473,1.269c-.265.208-.634.3-1.74.3-.443,0-.443-.016-.545-.458a2.7,2.7,0,0,0-.4-.945,8.865,8.865,0,0,0,1.209.074c.414,0,.516-.119.516-.427v-2.6c0-.458,0-.915.015-1.373A9.962,9.962,0,0,1,96.921,39.9c-.132.147-.221.236-.309.236s-.163-.089-.268-.28a2.8,2.8,0,0,0-.6-.783,10.686,10.686,0,0,0,2.375-3.748h-.163c-1.239,0-1.653.03-1.74.03-.149,0-.163-.015-.163-.178V34.2c0-.163.014-.178.163-.178.087,0,.5.03,1.74.03h.813A17.261,17.261,0,0,0,97.1,32.683c-.06-.044-.1-.087-.1-.117,0-.045.044-.074.119-.147l.6-.516c.149-.132.193-.132.326-.044l.884.634a11.042,11.042,0,0,0,1.136-1.343H98.175c-1.165,0-1.549.029-1.638.029-.146,0-.161-.014-.161-.161V29.954c0-.147.015-.163.161-.163.089,0,.473.029,1.638.029h2.553a.673.673,0,0,0,.3-.059.574.574,0,0,1,.208-.059c.117,0,.25.089.56.414.34.354.4.486.4.634a.358.358,0,0,1-.208.281,2.458,2.458,0,0,0-.411.441,12.87,12.87,0,0,1-1.653,1.86c.117.117.235.25.367.369.1.1.1.147-.059.28l-.087.074h.927a.5.5,0,0,0,.281-.059.4.4,0,0,1,.191-.044c.09,0,.236.072.518.339.354.325.427.471.427.605,0,.1-.03.163-.148.265a.342.342,0,0,0-.1.1,8.321,8.321,0,0,0,2.479-.96,7.362,7.362,0,0,1-1.15-1.416l-.621.709c-.116.134-.19.193-.28.193-.072,0-.146-.059-.25-.193a3.228,3.228,0,0,0-.84-.679,8.468,8.468,0,0,0,2.167-2.848,3.651,3.651,0,0,0,.325-.959c.427.074.987.206,1.358.295.132.03.206.089.206.193a.279.279,0,0,1-.147.22,1.251,1.251,0,0,0-.295.414c-.074.147-.134.295-.206.429h2.509c1.15,0,1.519-.03,1.606-.03.149,0,.164.015.164.163v.959c0,.147-.015.161-.164.161-.072,0-.309-.014-.914-.029a6.759,6.759,0,0,1-1.358,2.39,7.316,7.316,0,0,0,2.848.974,3.938,3.938,0,0,0-.5,1.032c-.178.442-.178.442-.62.325a9.477,9.477,0,0,1-2.774-1.4,7.518,7.518,0,0,1-1.3.751c.384.03.766.075,1.121.119.176.03.265.089.265.178a.464.464,0,0,1-.119.295,1.293,1.293,0,0,0-.131.605l-.046.265h1.093c1.329,0,1.786-.029,1.874-.029.149,0,.178.044.178.191l-.059.9a8.349,8.349,0,0,1-.486,3.01,1.575,1.575,0,0,1-1.654,1c-.251,0-.531,0-.84-.015-.414-.03-.414-.03-.516-.518a4.325,4.325,0,0,0-.326-.929,7.584,7.584,0,0,0,1.27.132c.369,0,.56-.059.709-.31a6.469,6.469,0,0,0,.367-2.2Zm-.811-6.771a6.072,6.072,0,0,0,1.224,1.594,4.544,4.544,0,0,0,.96-1.594Z" transform="translate(35.016 10.648)" fill="#49565e"/>
        <path id="パス_16267" data-name="パス 16267" d="M112.477,31.133c-.28,0-.4.015-.444.015-.146,0-.161-.015-.161-.163V29.953c0-.147.015-.163.161-.163.09,0,.4.03,1.446.03h1.594c1.032,0,1.358-.03,1.446-.03.132,0,.148.015.148.163v1.032c0,.147-.015.163-.148.163-.045,0-.148,0-.339-.015V40.99c0,1,.029,1.461.029,1.549,0,.147-.015.163-.178.163h-.987c-.149,0-.164-.015-.164-.163,0-.087.03-.545.03-1.549v-.856c-.709.236-1.416.458-2.006.635a1.922,1.922,0,0,0-.486.176.474.474,0,0,1-.236.1c-.075,0-.134-.029-.178-.191-.1-.4-.206-.93-.28-1.418.295-.014.516-.059.753-.089Zm2.434-.014h-1.18v1.653h1.18Zm0,2.92h-1.18v1.668h1.18Zm0,2.936h-1.18v2.081c.384-.1.768-.221,1.18-.355Zm8.145-1.933q.066,1.594.221,2.744a11.409,11.409,0,0,0,.486-1.061,6.255,6.255,0,0,0,.295-1.121,5.708,5.708,0,0,1,1.093.649c.117.1.176.163.176.265s-.059.178-.161.281a1.987,1.987,0,0,0-.311.59,12.143,12.143,0,0,1-1.21,2.2c.221.93.4,1.181.65,1.181.193,0,.295-.4.458-1.741a2.338,2.338,0,0,0,.781.59c.221.119.251.163.178.59-.236,1.683-.753,2.214-1.388,2.214-.56,0-1.15-.473-1.622-1.638a11.222,11.222,0,0,1-2.08,1.785.7.7,0,0,1-.325.163c-.117,0-.206-.119-.339-.384a2.263,2.263,0,0,0-.546-.679,10.519,10.519,0,0,0,1.314-.885h-.783c-.147,0-.163-.015-.163-.163v-.178h-1.564v.826c0,.147-.015.163-.161.163h-.9c-.147,0-.163-.015-.163-.163,0-.1.03-.471.03-2.449v-1.3c0-1.24-.03-1.653-.03-1.756,0-.146.015-.161.163-.161.1,0,.369.029,1.24.029h1.224c.871,0,1.136-.029,1.24-.029.132,0,.147.015.147.161,0,.089-.03.488-.03,1.4v1.343c0,1.461.015,1.917.03,2.065a10.3,10.3,0,0,0,1.255-1.269,4.792,4.792,0,0,1-.1-.516,25.925,25.925,0,0,1-.369-3.748h-3.453c-1.136,0-1.639.03-1.741.03-.132,0-.147-.015-.147-.178v-.959c0-.148.015-.148.147-.148.074,0,.384.014.974.014a10.72,10.72,0,0,0-.4-1.209c-.074-.163-.044-.221.149-.266l.707-.176c.191-.045.206-.015.265.117a11.691,11.691,0,0,1,.444,1.534h.53a7.09,7.09,0,0,0,.28-1.046,5.4,5.4,0,0,0,.074-.635c.384.044.886.163,1.2.221.119.03.149.074.149.163a.206.206,0,0,1-.074.178.4.4,0,0,0-.149.236c-.072.265-.176.575-.294.884h1.3c-.03-.781-.03-1.607-.044-2.492a15.038,15.038,0,0,0-.117-2.065,12.8,12.8,0,0,1,1.341.1c.147.015.251.074.251.163a.766.766,0,0,1-.089.31A4.673,4.673,0,0,0,123,31.267c0,.914.014,1.77.029,2.536h.221c1.431,0,1.933-.014,2.021-.014.147,0,.163,0,.163.148V34.9c0,.163-.015.178-.163.178-.089,0-.59-.03-2.021-.03Zm-4.811-3.114c-.9,0-1.209.03-1.3.03-.147,0-.163-.014-.163-.163v-.914c0-.149.015-.163.163-.163.089,0,.4.029,1.3.029h.075v-.473a5.476,5.476,0,0,0-.089-1.12c.546.014.855.029,1.343.074.148.015.236.087.236.176a.6.6,0,0,1-.089.221,1.907,1.907,0,0,0-.06.665v.456h.09c.987,0,1.282-.029,1.373-.029.146,0,.161.014.161.163V31.8c0,.149-.015.163-.161.163-.09,0-.385-.03-1.373-.03Zm-.029,5.564h1.565v-.783h-1.565Zm1.564,1.032h-1.565v.856h1.565Zm4.4-8.336c.161-.089.221-.029.295.1a7,7,0,0,1,.885,1.844c.044.132.03.191-.1.265l-.722.384c-.208.1-.236.059-.295-.1a9.625,9.625,0,0,0-.826-1.889c-.074-.148-.059-.178.132-.281Z" transform="translate(40.861 10.664)" fill="#49565e"/>
        <path id="パス_16268" data-name="パス 16268" d="M134.395,33.305c-1.343,0-1.8.029-1.889.029-.146,0-.146-.014-.146-.161V32.022c0-.163,0-.176.146-.176.089,0,.546.029,1.889.029H138v-.9a9.911,9.911,0,0,0-.105-1.785c.548.015,1.093.045,1.609.1.149.014.206.087.206.163a1.184,1.184,0,0,1-.072.382,4.635,4.635,0,0,0-.075,1.106v.93H143.1c1.343,0,1.8-.029,1.889-.029.148,0,.163.014.163.176v1.151c0,.147-.015.161-.163.161-.089,0-.546-.029-1.889-.029h-3.408a10.6,10.6,0,0,0,1.224,2.685,14.015,14.015,0,0,0,1.609-1.622,3.289,3.289,0,0,0,.473-.709,9.4,9.4,0,0,1,1.15.841c.148.134.178.206.178.295,0,.1-.089.178-.206.236a3.1,3.1,0,0,0-.754.605,16.306,16.306,0,0,1-1.653,1.475,11.845,11.845,0,0,0,3.808,3,5.139,5.139,0,0,0-.8,1.063c-.131.236-.191.34-.28.34a.913.913,0,0,1-.339-.178,10.743,10.743,0,0,1-4.619-5.843c.045,1.874.1,3.733.1,5.415,0,.679-.117,1.078-.561,1.343a3.888,3.888,0,0,1-2.036.325c-.458.014-.426,0-.56-.444a3.423,3.423,0,0,0-.545-1.136c.471.045.84.075,1.15.075.783,0,.96-.089.96-.561v-7.2Zm2.966,4.634c.1.456.1.456-.266.737a30.137,30.137,0,0,1-3.216,2.08,2.424,2.424,0,0,0-.429.295.324.324,0,0,1-.235.147c-.089,0-.163-.074-.221-.191a11.656,11.656,0,0,1-.634-1.344,8.043,8.043,0,0,0,1.2-.486,24.293,24.293,0,0,0,3.657-2.288,7.519,7.519,0,0,0,.149,1.049m-3.069-4.059c.132-.132.163-.148.294-.059a12.347,12.347,0,0,1,2.038,1.815.229.229,0,0,1,.087.147c0,.03-.029.074-.087.147l-.813.826c-.146.147-.191.191-.295.059a10.593,10.593,0,0,0-1.961-1.933c-.074-.059-.105-.089-.105-.117,0-.045.046-.089.134-.178Zm7.376-4.559c.134-.1.178-.087.34,0a10.465,10.465,0,0,1,1.637,1.416c.089.074.1.149-.089.295l-.709.591a.364.364,0,0,1-.178.1c-.044,0-.087-.044-.146-.117a9.306,9.306,0,0,0-1.565-1.476c-.116-.087-.116-.117.045-.25Z" transform="translate(48.408 10.676)" fill="#49565e"/>
        <path id="パス_16269" data-name="パス 16269" d="M148.76,31.133c-.28,0-.4.015-.444.015-.146,0-.161-.015-.161-.163V29.953c0-.147.015-.163.161-.163.09,0,.4.03,1.446.03h1.594c1.032,0,1.358-.03,1.446-.03.132,0,.148.015.148.163v1.032c0,.147-.015.163-.148.163-.045,0-.147,0-.339-.015V40.99c0,1,.029,1.461.029,1.549,0,.147-.015.163-.178.163h-.987c-.149,0-.164-.015-.164-.163,0-.087.03-.545.03-1.549v-.856c-.709.236-1.416.458-2.006.635a1.922,1.922,0,0,0-.486.176.474.474,0,0,1-.236.1c-.075,0-.134-.029-.178-.191-.1-.4-.206-.93-.28-1.418.295-.014.516-.059.753-.089Zm2.434-.014h-1.18v1.653h1.18Zm0,2.92h-1.18v1.668h1.18Zm0,2.936h-1.18v2.081c.384-.1.768-.221,1.18-.355Zm8.145-1.933q.066,1.594.221,2.744a11.413,11.413,0,0,0,.486-1.061,6.255,6.255,0,0,0,.295-1.121,5.708,5.708,0,0,1,1.093.649c.117.1.176.163.176.265s-.059.178-.161.281a1.987,1.987,0,0,0-.311.59,12.143,12.143,0,0,1-1.21,2.2c.221.93.4,1.181.65,1.181.193,0,.295-.4.458-1.741a2.338,2.338,0,0,0,.781.59c.221.119.251.163.178.59-.236,1.683-.753,2.214-1.388,2.214-.56,0-1.15-.473-1.622-1.638a11.222,11.222,0,0,1-2.08,1.785.7.7,0,0,1-.325.163c-.117,0-.206-.119-.339-.384a2.263,2.263,0,0,0-.546-.679,10.519,10.519,0,0,0,1.314-.885h-.783c-.148,0-.163-.015-.163-.163v-.178H154.5v.826c0,.147-.015.163-.161.163h-.9c-.147,0-.163-.015-.163-.163,0-.1.03-.471.03-2.449v-1.3c0-1.24-.03-1.653-.03-1.756,0-.146.015-.161.163-.161.1,0,.369.029,1.24.029H155.9c.871,0,1.136-.029,1.24-.029.132,0,.147.015.147.161,0,.089-.03.488-.03,1.4v1.343c0,1.461.015,1.917.03,2.065a10.3,10.3,0,0,0,1.255-1.269,4.792,4.792,0,0,1-.1-.516,25.925,25.925,0,0,1-.369-3.748h-3.453c-1.136,0-1.639.03-1.741.03-.132,0-.147-.015-.147-.178v-.959c0-.148.015-.148.147-.148.074,0,.384.014.974.014a10.723,10.723,0,0,0-.4-1.209c-.074-.163-.044-.221.149-.266l.707-.176c.191-.045.206-.015.265.117a11.689,11.689,0,0,1,.444,1.534h.53a7.088,7.088,0,0,0,.28-1.046,5.4,5.4,0,0,0,.074-.635c.384.044.886.163,1.2.221.119.03.149.074.149.163a.206.206,0,0,1-.074.178.4.4,0,0,0-.149.236c-.072.265-.176.575-.294.884h1.3c-.03-.781-.03-1.607-.044-2.492a15.038,15.038,0,0,0-.117-2.065,12.8,12.8,0,0,1,1.341.1c.148.015.251.074.251.163a.766.766,0,0,1-.089.31,4.674,4.674,0,0,0-.087,1.446c0,.914.014,1.77.029,2.536h.221c1.431,0,1.932-.014,2.021-.014.148,0,.163,0,.163.148V34.9c0,.163-.015.178-.163.178-.089,0-.59-.03-2.021-.03Zm-4.811-3.114c-.9,0-1.209.03-1.3.03-.147,0-.163-.014-.163-.163v-.914c0-.149.015-.163.163-.163.089,0,.4.029,1.3.029h.075v-.473a5.477,5.477,0,0,0-.089-1.12c.546.014.855.029,1.343.074.148.015.236.087.236.176a.6.6,0,0,1-.089.221,1.907,1.907,0,0,0-.06.665v.456h.09c.987,0,1.282-.029,1.373-.029.146,0,.161.014.161.163V31.8c0,.149-.015.163-.161.163-.09,0-.385-.03-1.373-.03Zm-.029,5.564h1.565v-.783H154.5Zm1.564,1.032H154.5v.856h1.565Zm4.4-8.336c.161-.089.221-.029.3.1a7,7,0,0,1,.885,1.844c.044.132.03.191-.1.265l-.722.384c-.208.1-.236.059-.295-.1a9.625,9.625,0,0,0-.826-1.889c-.074-.148-.059-.178.132-.281Z" transform="translate(54.131 10.664)" fill="#49565e"/>
        <path id="パス_16270" data-name="パス 16270" d="M166.39,32.792c-1.326,0-1.784.03-1.874.03-.146,0-.161-.015-.161-.163V31.495c0-.163.015-.178.161-.178.09,0,.548.03,1.874.03h3.541v-.236a10.609,10.609,0,0,0-.117-1.889c.531.015,1.166.044,1.683.1.132.014.235.087.235.161a.771.771,0,0,1-.1.31,4.2,4.2,0,0,0-.089,1.165v.385H175.3c1.327,0,1.785-.03,1.874-.03.148,0,.163.015.163.178V32.66c0,.147-.015.163-.163.163-.089,0-.546-.03-1.874-.03H171.54v1.83h2.154a1.206,1.206,0,0,0,.427-.059.478.478,0,0,1,.193-.06c.1,0,.221.089.59.458.34.325.458.5.458.635,0,.117-.074.163-.208.265a1.243,1.243,0,0,0-.354.4,13.444,13.444,0,0,1-2.7,3.143,16.164,16.164,0,0,0,5.488,1.668,5.343,5.343,0,0,0-.634,1.18c-.1.295-.149.384-.31.384a1.856,1.856,0,0,1-.325-.044,16.61,16.61,0,0,1-5.591-2.185,18.7,18.7,0,0,1-5.341,2.17,1.183,1.183,0,0,1-.324.059c-.149,0-.193-.1-.3-.384a4.039,4.039,0,0,0-.605-1.048,18.777,18.777,0,0,0,5.326-1.77,10.4,10.4,0,0,1-2.39-3.409c-1,.015-1.388.03-1.461.03-.146,0-.163-.015-.163-.163V34.755c0-.147.016-.163.163-.163.089,0,.576.03,2.008.03h2.286v-1.83Zm2.406,3.231a8.436,8.436,0,0,0,2.035,2.509,9.224,9.224,0,0,0,2.184-2.509Z" transform="translate(60.039 10.688)" fill="#49565e"/>
        <path id="パス_16271" data-name="パス 16271" d="M183.278,37.862c0,1.416.044,2.2.044,2.936,0,.811-.117,1.21-.458,1.46a2.73,2.73,0,0,1-1.7.325c-.458.015-.486.015-.56-.442a3.706,3.706,0,0,0-.355-1.063,9.128,9.128,0,0,0,1.27.044c.2,0,.309-.087.309-.412V37.773l-.575.178a1.975,1.975,0,0,0-.516.251.4.4,0,0,1-.251.087c-.087,0-.146-.059-.193-.176-.087-.384-.175-.886-.25-1.4a9.431,9.431,0,0,0,1.373-.28l.412-.117V33.451h-.265c-.915,0-1.2.03-1.27.03-.146,0-.161-.015-.161-.164V32.241c0-.147.015-.163.161-.163.075,0,.355.03,1.27.03h.265v-.783a16.5,16.5,0,0,0-.1-2.1c.533.015,1.005.044,1.491.1.147.016.251.1.251.164a.753.753,0,0,1-.1.309,4.519,4.519,0,0,0-.089,1.49v.813c.753,0,1-.03,1.108-.03.146,0,.161.015.161.163v1.076c0,.149-.015.164-.161.164-.105,0-.355-.03-1.108-.03v2.36c.37-.132.753-.295,1.151-.456a7.238,7.238,0,0,0-.074,1.061c0,.384-.045.4-.31.516s-.5.221-.768.325Zm7.849-.546a.715.715,0,0,0,.311-.059.4.4,0,0,1,.19-.045c.119,0,.251.089.518.4.266.28.369.443.369.561,0,.074-.059.148-.163.206a1.216,1.216,0,0,0-.384.443,11.418,11.418,0,0,1-1.43,1.683,12.528,12.528,0,0,0,3.156.929,3.319,3.319,0,0,0-.458.915c-.163.442-.163.442-.6.325a11.852,11.852,0,0,1-3.174-1.284,9.883,9.883,0,0,1-2.8,1.327,1.143,1.143,0,0,1-.339.089c-.134,0-.163-.1-.28-.339a3.218,3.218,0,0,0-.548-.783,9.452,9.452,0,0,0,2.863-1.106,9.025,9.025,0,0,1-1.269-1.4,9.359,9.359,0,0,1-2.375,3.1c-.163.132-.251.206-.324.206-.09,0-.164-.089-.281-.25a3.22,3.22,0,0,0-.707-.709,8.509,8.509,0,0,0,3.186-5.016c-1.078.015-1.505.03-1.579.03-.147,0-.161-.015-.161-.178V35.4c0-.148.014-.163.161-.163.089,0,.546.03,1.815.03.029-.251.044-.533.059-.8-1.21,0-1.668.03-1.741.03-.147,0-.163-.015-.163-.178v-.84c0-.149.015-.164.163-.164.089,0,.561.03,1.919.03h3.171a11.537,11.537,0,0,0,.8-1.607,5,5,0,0,0,.221-.8,8.41,8.41,0,0,1,1.312.354.265.265,0,0,1,.193.208.3.3,0,0,1-.132.221.745.745,0,0,0-.236.28c-.236.458-.414.841-.707,1.343.959,0,1.341-.03,1.43-.03.148,0,.163.015.163.164v.84c0,.163-.015.178-.163.178-.1,0-.575-.03-1.934-.03H188.31c-.03.28-.059.546-.1.8h3.186c1.388,0,1.875-.03,1.964-.03.132,0,.146.015.146.163v.959c0,.163,0,.178-.146.178-.089,0-.576-.03-1.964-.03h-3.408c-.059.28-.132.546-.206.811Zm1.756-7.348c.089.089.161.163.161.251s-.116.178-.309.178a4.509,4.509,0,0,0-.65.087,55.37,55.37,0,0,1-6.255.753c-.471.03-.516.045-.664-.4a3.186,3.186,0,0,0-.429-.811,32.206,32.206,0,0,0,6.33-.59,3.59,3.59,0,0,0,.828-.28,7.7,7.7,0,0,1,.987.811m-6.463,1.358c.191-.074.221-.059.31.059a6.748,6.748,0,0,1,.677,1.24c.06.148.046.176-.146.25l-.813.34c-.19.074-.236.074-.294-.089a5.136,5.136,0,0,0-.62-1.269c-.1-.132-.089-.148.1-.221Zm1.476,7.038a6.263,6.263,0,0,0,1.475,1.461,6.43,6.43,0,0,0,1.224-1.461Zm1.076-5.253c-.206.089-.236.089-.295-.087a8.823,8.823,0,0,0-.635-1.418c-.059-.1,0-.148.208-.221l.664-.25c.206-.089.251-.06.324.059a6.633,6.633,0,0,1,.679,1.343c.045.132.03.176-.148.251Z" transform="translate(65.849 10.664)" fill="#49565e"/>
      </g>
    </g>
  </g>
</svg>
