<svg xmlns="http://www.w3.org/2000/svg" width="25" height="24.986" viewBox="0 0 25 24.986"><g transform="translate(12.5 12.493)" opacity="0.501"><g transform="translate(-12.5 -12.493)"><path d="M15.522,11.371,17.4,11A8.62,8.62,0,0,0,10.15,4L9.9,5.874A6.621,6.621,0,0,1,15.522,11.371Z" transform="translate(2.482 0.997)" fill="#fff"/><path d="M20.594,11.993l1.874-.25A14.242,14.242,0,0,0,10.35,0L10.1,1.874A12.368,12.368,0,0,1,20.594,11.993Z" transform="translate(2.532 0)" fill="#fff"/><path d="M23.615,18.365l-1-.5-1.124-.625-1-.5-.5-.25-.625-.375h-.5a1.5,1.5,0,0,0-.875.5l-1,1.124-1,1.124a1.374,1.374,0,0,1-.875.5h-.75l-.375-.25-.375-.25A18.615,18.615,0,0,1,9.5,15.741a18.614,18.614,0,0,1-2.873-4.622l-.25-.375-.25-.375V9.62a1.374,1.374,0,0,1,.5-.875L7.5,7.871l1.124-1A1.5,1.5,0,0,0,9.123,6,1.124,1.124,0,0,0,9,5.5l-.375-.625-.25-.5-.5-1L7.249,2.249l-.5-1Q6,.125,5.625,0H4L2.751.5A4.747,4.747,0,0,0,.877,2.748,6.871,6.871,0,0,0,0,6a6.871,6.871,0,0,0,0,.875l.25,1,.25.875.375,1,.375.875a16.116,16.116,0,0,0,1.5,3.123A26.36,26.36,0,0,0,6.624,18.49a26.36,26.36,0,0,0,4.622,3.748,16.116,16.116,0,0,0,3.123,1.5l.875.375,1,.375.875.25,1,.25h.875a6.871,6.871,0,0,0,3.248-.875,4.747,4.747,0,0,0,2.124-1.874,7,7,0,0,0,.375-1.249,5.872,5.872,0,0,0,.125-1.249,1,1,0,0,0,0-.375Q24.864,18.989,23.615,18.365Z" transform="translate(0.011 0)" fill="#fff"/></g></g></svg>