<svg xmlns="http://www.w3.org/2000/svg" width="113.796" height="130.126" viewBox="0 0 113.796 130.126"><g transform="translate(-480.602 -153.712)"><rect width="72" height="59" rx="5" transform="translate(503.602 196.712)" fill="#0091d4" opacity="0.15"/><path d="M568.9,194.821a4.077,4.077,0,0,1,4.082,4.064l.107,47.951a4.078,4.078,0,0,1-4.065,4.082l-63.112.14a4.077,4.077,0,0,1-4.082-4.064l-.107-47.95a4.079,4.079,0,0,1,4.065-4.083l63.112-.14m-.014-6.065-63.112.14a10.138,10.138,0,0,0-10.115,10.161l.106,47.95a10.138,10.138,0,0,0,10.161,10.116l63.112-.14a10.138,10.138,0,0,0,10.115-10.161l-.106-47.95a10.14,10.14,0,0,0-10.161-10.116Z" fill="#0091d4"/><path d="M558.993,192.261a3.033,3.033,0,0,1-3.039-3.026l-.024-10.877a18.623,18.623,0,1,0-37.245.083,3.033,3.033,0,0,1-6.065.014,24.687,24.687,0,1,1,49.374-.11l.025,10.877A3.034,3.034,0,0,1,558.993,192.261Z" fill="#0091d4"/><path d="M546.828,219.084a9.431,9.431,0,1,0-13.295,8.616l.016,7.558a3.884,3.884,0,1,0,7.768-.017l-.016-7.558A9.427,9.427,0,0,0,546.828,219.084Z" fill="#0091d4"/><rect width="113.712" height="37.904" rx="6.565" transform="translate(480.601 245.935) rotate(-0.127)" fill="#ec652b"/><g transform="translate(0 -2)"><path d="M508.762,263.223a2.183,2.183,0,0,0-2.617-.466l-1.991,1.023-.006-1.9a1.939,1.939,0,0,0-3.79.006l.005,1.9-2-1.015a2.18,2.18,0,0,0-2.615.475,1.364,1.364,0,0,0,.591,2.106l2.386,1.213-2.379,1.222a1.362,1.362,0,0,0-.579,2.108,2.039,2.039,0,0,0,1.6.706,2.234,2.234,0,0,0,1.012-.239l1.992-1.023.005,1.9a1.939,1.939,0,0,0,3.79-.007l-.005-1.9,2,1.015a2.236,2.236,0,0,0,1.014.236,2.036,2.036,0,0,0,1.6-.711,1.364,1.364,0,0,0-.59-2.107l-2.386-1.212,2.379-1.222A1.363,1.363,0,0,0,508.762,263.223Z" transform="translate(0.142 1)" fill="#fff"/><path d="M532.582,263.17a2.183,2.183,0,0,0-2.617-.466l-1.991,1.023-.005-1.9a1.939,1.939,0,0,0-3.79.006l.005,1.9-2-1.015a2.18,2.18,0,0,0-2.615.475,1.364,1.364,0,0,0,.591,2.106l2.386,1.213-2.379,1.222a1.363,1.363,0,0,0-.579,2.108,2.039,2.039,0,0,0,1.6.706,2.241,2.241,0,0,0,1.013-.239l1.991-1.023.005,1.9a1.94,1.94,0,0,0,3.791-.006l-.005-1.9,2,1.015a2.225,2.225,0,0,0,1.015.236,2.039,2.039,0,0,0,1.6-.711,1.365,1.365,0,0,0-.591-2.107l-2.386-1.212L532,265.278A1.362,1.362,0,0,0,532.582,263.17Z" transform="translate(0.322 1)" fill="#fff"/><path d="M556.4,263.117a2.184,2.184,0,0,0-2.617-.466l-1.991,1.023-.005-1.9a1.94,1.94,0,0,0-3.791.007l.005,1.9-2-1.015a2.179,2.179,0,0,0-2.614.475,1.364,1.364,0,0,0,.591,2.107l2.385,1.212-2.379,1.222a1.363,1.363,0,0,0-.579,2.108,2.04,2.04,0,0,0,1.6.706,2.225,2.225,0,0,0,1.013-.239l1.992-1.023.005,1.9a1.939,1.939,0,0,0,3.79-.006l-.005-1.9,2,1.015a2.232,2.232,0,0,0,1.014.237,2.039,2.039,0,0,0,1.6-.712,1.364,1.364,0,0,0-.591-2.106l-2.385-1.213,2.379-1.222A1.363,1.363,0,0,0,556.4,263.117Z" transform="translate(-0.498 1)" fill="#fff"/><path d="M579.651,267.608l-2.386-1.213,2.379-1.222a1.361,1.361,0,0,0,.579-2.107,2.182,2.182,0,0,0-2.617-.467l-1.991,1.023-.005-1.9a1.94,1.94,0,0,0-3.791.007l.006,1.9-2-1.015a2.178,2.178,0,0,0-2.614.475,1.364,1.364,0,0,0,.59,2.106l2.386,1.212-2.379,1.222a1.363,1.363,0,0,0-.579,2.108,2.039,2.039,0,0,0,1.6.706,2.231,2.231,0,0,0,1.013-.239l1.991-1.023,0,1.9a1.94,1.94,0,0,0,3.79-.006l-.005-1.9,2,1.016a2.246,2.246,0,0,0,1.015.236,2.039,2.039,0,0,0,1.6-.712A1.364,1.364,0,0,0,579.651,267.608Z" transform="translate(-0.32 1)" fill="#fff"/></g></g></svg>