<svg xmlns="http://www.w3.org/2000/svg" width="26.985" height="26.841" viewBox="0 0 26.985 26.841"><g transform="translate(0)"><path d="M19.764,18.329l-.431-.431.431-.431a10.981,10.981,0,1,0-2.3,2.3l.431-.431.431.431,7.177,7.177,1.579-1.579Zm-8.9,1.435a8.756,8.756,0,1,1,8.756-8.756,8.756,8.756,0,0,1-8.756,8.612Z" transform="translate(-0.1 -0.1)" fill="#8da2bf"/><path d="M19.764,18.329l-.431-.431.431-.431a10.981,10.981,0,1,0-2.3,2.3l.431-.431.431.431,7.177,7.177,1.579-1.579Zm-8.9,1.435a8.756,8.756,0,1,1,8.756-8.756,8.756,8.756,0,0,1-8.756,8.612Z" transform="translate(-0.1 -0.1)" fill="#8da2bf"/></g></svg>