<svg xmlns="http://www.w3.org/2000/svg" width="24" height="22.32" viewBox="0 0 24 22.32"><g transform="translate(11 10.23)"><path d="M21.6,0H2.4A2.4,2.4,0,0,0,0,2.4V15.6A2.4,2.4,0,0,0,2.4,18H13.8l3.84,4.32h.48a.36.36,0,0,0,.24-.36V18H21.6A2.4,2.4,0,0,0,24,15.6V2.4A2.4,2.4,0,0,0,21.6,0ZM6.36,10.44a1.56,1.56,0,1,1,1.228-.452,1.56,1.56,0,0,1-1.228.452Zm5.64,0a1.56,1.56,0,1,1,1.56-1.56A1.56,1.56,0,0,1,12,10.44Zm5.64,0a1.56,1.56,0,1,1,1.148-.5,1.56,1.56,0,0,1-1.148.5Z" transform="translate(-11 -10.23)" fill="#8da2bf"/></g></svg>