<svg xmlns="http://www.w3.org/2000/svg" width="24" height="24" viewBox="0 0 24 24"><g transform="translate(12 12)"><g transform="translate(-12 -12)"><path d="M21.647,145.5H2.353A2.358,2.358,0,0,0,0,147.858V152a.7.7,0,0,0,.534.684l8.709,2.175v-2a1.406,1.406,0,0,1,1.406-1.406h2.709a1.406,1.406,0,0,1,1.406,1.406v2l8.709-2.175A.7.7,0,0,0,24,152v-4.139a2.358,2.358,0,0,0-2.353-2.358Z" transform="translate(0 -138.68)" fill="#8da2bf"/><path d="M33.823,334.345a1.406,1.406,0,0,1-.6,1.158l-1.355.942a1.406,1.406,0,0,1-1.6,0l-1.355-.942a1.406,1.406,0,0,1-.6-1.158v-.473L20,331.8v6.089a2.358,2.358,0,0,0,2.353,2.358H39.772a2.358,2.358,0,0,0,2.353-2.358V331.8l-8.3,2.072Z" transform="translate(-19.062 -316.247)" fill="#8da2bf"/><path d="M229.809,306.323V302.4H227.1v3.923l1.355.938Z" transform="translate(-216.455 -288.225)" fill="#8da2bf"/><path d="M119.712,4.8a1.711,1.711,0,0,0-.994-1.552,2.03,2.03,0,0,1,2.016-1.833H125.3a2.03,2.03,0,0,1,2.016,1.833,1.711,1.711,0,0,0-.994,1.552v.572h3.412V4.8a1.711,1.711,0,0,0-1.008-1.561A3.441,3.441,0,0,0,125.3,0h-4.566a3.441,3.441,0,0,0-3.427,3.234A1.711,1.711,0,0,0,116.3,4.8v.572h3.413Z" transform="translate(-110.848)" fill="#8da2bf"/></g></g></svg>