<svg xmlns="http://www.w3.org/2000/svg" width="108.322" height="129.997" viewBox="0 0 108.322 129.997"><g transform="translate(-334.776 -153.982)"><rect width="75" height="106" transform="translate(342.776 162.982)" fill="#0091d4" opacity="0.145"/><rect width="9" height="106" transform="translate(422.776 165.982)" fill="#0091d4" opacity="0.145"/><rect width="70" height="7" transform="translate(347.776 272.982)" fill="#0091d4" opacity="0.145"/><path d="M427.217,280.984l-76.27.169a3.033,3.033,0,0,1-.014-6.065l75.246-.167L425.942,168.4a3.032,3.032,0,1,1,6.064-.014l.239,107.55A5.045,5.045,0,0,1,427.217,280.984Z" fill="#0091d4"/><path d="M412.3,271.62l-72.234.16a5.046,5.046,0,0,1-5.051-5.028l-.239-107.55a5.046,5.046,0,0,1,5.029-5.051l76.27-.169a5.045,5.045,0,0,1,5.051,5.028l.171,77.231-6.064.014-.17-76.206-74.22.164.235,105.5,71.209-.158Z" fill="#0091d4"/><rect width="53.065" height="6.065" rx="2.674" transform="translate(351.528 208.606) rotate(-0.127)" fill="#0091d4"/><rect width="30.955" height="6.065" rx="2.674" transform="translate(373.684 228.817) rotate(-0.127)" fill="#0091d4"/><rect width="17.9" height="6.065" rx="2.674" transform="matrix(1, -0.002, 0.002, 1, 386.611, 171.209)" fill="#0091d4"/><rect width="17.9" height="6.065" rx="2.674" transform="translate(386.666 196.088) rotate(-0.127)" fill="#0091d4"/><rect width="17.9" height="6.065" rx="2.674" transform="translate(386.638 183.649) rotate(-0.127)" fill="#0091d4"/><rect width="29.705" height="30.444" rx="2.201" transform="translate(351.445 171.219) rotate(-0.127)" fill="#0091d4"/><path d="M357.92,239.468l-.124,0a3.032,3.032,0,0,1-2.246-1.131l-3.963-4.931a3.033,3.033,0,0,1,4.728-3.8l1.778,2.213,5.989-6.369A3.032,3.032,0,1,1,368.5,229.6l-8.377,8.91A3.034,3.034,0,0,1,357.92,239.468Z" fill="#0091d4"/><rect width="30.955" height="6.065" rx="2.674" transform="translate(373.726 247.916) rotate(-0.127)" fill="#0091d4"/><path d="M25.775,0A25.775,25.775,0,1,1,0,25.775,25.775,25.775,0,0,1,25.775,0Z" transform="translate(391.549 232.43)" fill="#ec652b"/><path d="M357.962,258.567c-.041,0-.082,0-.124,0a3.03,3.03,0,0,1-2.246-1.131l-3.962-4.93a3.032,3.032,0,1,1,4.727-3.8l1.778,2.213,5.989-6.37a3.032,3.032,0,0,1,4.419,4.154l-8.378,8.91A3.034,3.034,0,0,1,357.962,258.567Z" fill="#0091d4"/><path d="M420.412,249.59l-8.434,2.722-5.637,15.165,6.75-6.781a3.493,3.493,0,1,1,1.731,1.736l-6.794,6.824,15.212-5.732,2.685-8.445Z" fill="#fff"/><path d="M424.192,246.6l-1.84,1.848,4.885,4.863,2.022-1.667Z" fill="#fff"/></g></svg>