<svg xmlns="http://www.w3.org/2000/svg" width="108.321" height="129.997" viewBox="0 0 108.321 129.997"><g transform="translate(-190.609 -154.302)"><rect width="75" height="106" transform="translate(199.609 163.302)" fill="#0091d4" opacity="0.153"/><path d="M268.133,271.94l-72.234.16a5.044,5.044,0,0,1-5.051-5.028l-.239-107.55a5.046,5.046,0,0,1,5.028-5.051l76.271-.169a5.044,5.044,0,0,1,5.05,5.028l.172,77.232-6.065.013-.169-76.206-74.22.165.235,105.5,71.208-.159Z" fill="#0091d4"/><path d="M233.792,187.822a9,9,0,1,0-9.038-9A9.018,9.018,0,0,0,233.792,187.822Z" fill="#0091d4"/><path d="M219.91,203.618l27.944-.062a1.158,1.158,0,0,0,1.187-1.143c-.013-5.964-5.086-10.641-11.337-10.627l-7.7.017c-6.224.014-11.3,4.687-11.29,10.678A1.157,1.157,0,0,0,219.91,203.618Z" fill="#0091d4"/><rect width="53.065" height="6.065" rx="2.674" transform="translate(207.368 212.181) rotate(-0.127)" fill="#0091d4"/><rect width="53.065" height="6.065" rx="2.674" transform="translate(207.45 248.871) rotate(-0.127)" fill="#0091d4"/><rect width="53.065" height="6.065" rx="2.674" transform="translate(207.423 236.641) rotate(-0.127)" fill="#0091d4"/><rect width="53.065" height="6.065" rx="2.674" transform="translate(207.395 224.411) rotate(-0.127)" fill="#0091d4"/><path d="M25.775,0A25.775,25.775,0,1,1,0,25.775,25.775,25.775,0,0,1,25.775,0Z" transform="translate(247.382 232.75)" fill="#ec652b"/><path d="M275.773,250.189l-8.434,2.722L261.7,268.075l6.75-6.78a3.493,3.493,0,1,1,1.731,1.736l-6.794,6.824,15.212-5.732,2.685-8.446Z" fill="#fff"/><path d="M279.553,247.2l-1.84,1.848,4.885,4.863,2.022-1.667Z" fill="#fff"/></g></svg>